# xmcd CD database file
# Copyright (C) 1993-1996 Ti Kan
#
# Track frame offsets:
#	182
#	20700
#	39037
#	58502
#	86447
#	101205
#	115822
#	132632
#	151772
#
# Disc length: 2269 seconds
#
# Revision: 1
# Processed by: cddbd v1.4b41PL1 Copyright (c) Steve Scherf et al.
# Submitted via: CDValet v3.31 - Copyright (c) 1997 Greg Leichner
#
DISCID=6c08db09
DTITLE=Johnnie Taylor - Crazy 'Bout You
DYEAR=1900
DGENRE=
TTITLE0=Still Crazy
TTITLE1=Without You
TTITLE2=Dance Floor To The Back Door
TTITLE3=Money's Running Funny
TTITLE4=For Your Precious Love
TTITLE5=She's No Lady
TTITLE6=Airtight Alibi
TTITLE7=I Was Looking For Somebody
TTITLE8=Nothin' But The Blues
EXTD=
EXTT0=
EXTT1=
EXTT2=
EXTT3=
EXTT4=
EXTT5=
EXTT6=
EXTT7=
EXTT8=
PLAYORDER=
